<svg width="26" height="23" viewBox="0 0 26 23" fill="none" xmlns="http://www.w3.org/2000/svg">
<path d="M12.6149 13.2457C13.6595 13.2457 14.5064 12.3988 14.5064 11.3542C14.5064 10.3096 13.6595 9.46271 12.6149 9.46271C11.5703 9.46271 10.7234 10.3096 10.7234 11.3542C10.7234 12.3988 11.5703 13.2457 12.6149 13.2457Z" fill="white"/>
<path d="M16.7636 19.0714L15.1369 17.3817L15.0486 17.2934L13.4472 15.6919C13.193 15.7364 12.9359 15.7617 12.678 15.7676C12.0931 15.7759 11.5124 15.668 10.9696 15.4499C10.4269 15.2319 9.93286 14.9081 9.51633 14.4974C9.0998 14.0868 8.76906 13.5974 8.54333 13.0578C8.3176 12.5182 8.20138 11.9391 8.20144 11.3541C8.20729 11.0962 8.23258 10.8391 8.2771 10.5849L5.75512 8.06294L3.78798 6.14624C2.36473 7.48727 1.14546 9.02941 0.168941 10.7236C0.0582657 10.9153 0 11.1328 0 11.3541C0 11.5755 0.0582657 11.7929 0.168941 11.9846C0.963364 13.3591 5.2129 20.1811 12.6401 20.1811H12.9554C14.352 20.1396 15.7305 19.8537 17.0284 19.3362L16.7636 19.0714Z" fill="white"/>
<path d="M8.31494 3.48552L11.8457 7.01629C12.0998 6.97177 12.357 6.94648 12.6149 6.94063C13.7854 6.94063 14.908 7.40562 15.7357 8.23331C16.5634 9.06099 17.0284 10.1836 17.0284 11.3541C17.0225 11.612 16.9972 11.8692 16.9527 12.1233L20.3322 15.5027L21.3914 16.562C22.8325 15.2245 24.0689 13.6822 25.0609 11.9846C25.1716 11.7929 25.2298 11.5754 25.2298 11.3541C25.2298 11.1327 25.1716 10.9153 25.0609 10.7236C24.2538 9.3239 19.8152 2.30019 12.2744 2.52717C10.8778 2.5686 9.4993 2.85455 8.20145 3.37203L8.31494 3.48552Z" fill="white"/>
<path d="M23.5981 20.5467L21.9589 18.92L19.4369 16.398L7.43226 4.38079L5.57861 2.52714L3.42232 0.370847C3.30474 0.253274 3.16516 0.16001 3.01155 0.0963799C2.85793 0.03275 2.69329 0 2.52701 0C2.36074 0 2.1961 0.03275 2.04248 0.0963799C1.88886 0.16001 1.74928 0.253274 1.63171 0.370847C1.39426 0.608296 1.26086 0.930345 1.26086 1.26615C1.26086 1.60195 1.39426 1.924 1.63171 2.16145L4.45633 5.04912L6.66306 7.1928L15.8809 16.398L15.9692 16.4863L17.6589 18.176L18.4029 18.92L21.8075 22.3373C21.9248 22.4555 22.0642 22.5493 22.2179 22.6133C22.3716 22.6773 22.5364 22.7103 22.7028 22.7103C22.8693 22.7103 23.0341 22.6773 23.1878 22.6133C23.3415 22.5493 23.4809 22.4555 23.5981 22.3373C23.7163 22.2201 23.8101 22.0806 23.8742 21.9269C23.9382 21.7733 23.9711 21.6084 23.9711 21.442C23.9711 21.2755 23.9382 21.1107 23.8742 20.957C23.8101 20.8034 23.7163 20.6639 23.5981 20.5467Z" fill="white"/>
</svg>
